{
  "accessors": [
    {
      "bufferView": 2,
      "componentType": 5126,
      "count": 65532,
      "max": [
        2.1410601139068604,
        2.4656736850738525,
        3.1174745559692383
      ],
      "min": [
        -4.943180561065674,
        -0.631378173828125,
        -3.1174745559692383
      ],
      "type": "VEC3"
    },
    {
      "bufferView": 2,
      "byteOffset": 786384,
      "componentType": 5126,
      "count": 65532,
      "max": [
        1.0,
        1.0,
        1.0
      ],
      "min": [
        -1.0,
        -1.0,
        -1.0
      ],
      "type": "VEC3"
    },
    {
      "bufferView": 1,
      "componentType": 5126,
      "count": 65532,
      "max": [
        1.0000001192092896,
        1.8605602979660034
      ],
      "min": [
        -7.133764266967773,
        -2.015996217727661
      ],
      "type": "VEC2"
    },
    {
      "bufferView": 0,
      "componentType": 5125,
      "count": 151116,
      "type": "SCALAR"
    },
    {
      "bufferView": 2,
      "byteOffset": 1572768,
      "componentType": 5126,
      "count": 53207,
      "max": [
        8.975095748901367,
        2.7357699871063232,
        3.9011244773864746
      ],
      "min": [
        -5.071991920471191,
        -1.0508180856704712,
        -3.9011247158050537
      ],
      "type": "VEC3"
    },
    {
      "bufferView": 2,
      "byteOffset": 2211252,
      "componentType": 5126,
      "count": 53207,
      "max": [
        1.0,
        1.0,
        1.0
      ],
      "min": [
        -1.0,
        -1.0,
        -1.0
      ],
      "type": "VEC3"
    },
    {
      "bufferView": 1,
      "byteOffset": 524256,
      "componentType": 5126,
      "count": 53207,
      "max": [
        9.010848999023438,
        3.4694786071777344
      ],
      "min": [
        -7.757480144500732,
        -2.015996217727661
      ],
      "type": "VEC2"
    },
    {
      "bufferView": 0,
      "byteOffset": 604464,
      "componentType": 5125,
      "count": 140784,
      "type": "SCALAR"
    },
    {
      "bufferView": 2,
      "byteOffset": 2849736,
      "componentType": 5126,
      "count": 243,
      "max": [
        7.338649749755859,
        0.5954525470733643,
        3.1174745559692383
      ],
      "min": [
        -3.4339919090270996,
        0.16333933174610138,
        -3.1174745559692383
      ],
      "type": "VEC3"
    },
    {
      "bufferView": 2,
      "byteOffset": 2852652,
      "componentType": 5126,
      "count": 243,
      "max": [
        -0.054842203855514526,
        -0.979228675365448,
        0.19443576037883759
      ],
      "min": [
        -0.05749756470322609,
        -0.9983997941017151,
        -0.19443576037883759
      ],
      "type": "VEC3"
    },
    {
      "bufferView": 1,
      "byteOffset": 949912,
      "componentType": 5126,
      "count": 243,
      "max": [
        9.010848999023438,
        2.8365607261657715
      ],
      "min": [
        -7.757479667663574,
        -2.015996217727661
      ],
      "type": "VEC2"
    },
    {
      "bufferView": 0,
      "byteOffset": 1167600,
      "componentType": 5125,
      "count": 816,
      "type": "SCALAR"
    },
    {
      "bufferView": 2,
      "byteOffset": 2855568,
      "componentType": 5126,
      "count": 10220,
      "max": [
        -0.856886088848114,
        0.586219847202301,
        2.693829298019409
      ],
      "min": [
        -2.867640256881714,
        0.48463156819343567,
        -2.693829298019409
      ],
      "type": "VEC3"
    },
    {
      "bufferView": 2,
      "byteOffset": 2978208,
      "componentType": 5126,
      "count": 10220,
      "max": [
        0.00019219408568460494,
        0.7112563848495483,
        0.9659395813941956
      ],
      "min": [
        -0.00019216783402953297,
        -0.7112563848495483,
        -0.9659395813941956
      ],
      "type": "VEC3"
    },
    {
      "bufferView": 1,
      "byteOffset": 951856,
      "componentType": 5126,
      "count": 10220,
      "max": [
        0.6666668653488159,
        0.6869807243347168
      ],
      "min": [
        0.33333343267440796,
        0.5262435674667358
      ],
      "type": "VEC2"
    },
    {
      "bufferView": 0,
      "byteOffset": 1170864,
      "componentType": 5125,
      "count": 15360,
      "type": "SCALAR"
    },
    {
      "bufferView": 2,
      "byteOffset": 3100848,
      "componentType": 5126,
      "count": 4591,
      "max": [
        -0.8599477410316467,
        0.5781683325767517,
        2.7054591178894043
      ],
      "min": [
        -2.86457896232605,
        0.4926835596561432,
        -2.7054591178894043
      ],
      "type": "VEC3"
    },
    {
      "bufferView": 2,
      "byteOffset": 3155940,
      "componentType": 5126,
      "count": 4591,
      "max": [
        1.0,
        0.8660344481468201,
        1.0
      ],
      "min": [
        -1.0,
        -0.8660344481468201,
        -1.0
      ],
      "type": "VEC3"
    },
    {
      "bufferView": 1,
      "byteOffset": 1033616,
      "componentType": 5126,
      "count": 4591,
      "max": [
        1.0000001192092896,
        1.0000001192092896
      ],
      "min": [
        -8.940698137394065e-08,
        0.009999976493418217
      ],
      "type": "VEC2"
    },
    {
      "bufferView": 0,
      "byteOffset": 1232304,
      "componentType": 5125,
      "count": 6912,
      "type": "SCALAR"
    },
    {
      "bufferView": 2,
      "byteOffset": 3211032,
      "componentType": 5126,
      "count": 1712,
      "max": [
        -4.544041633605957,
        0.4119509160518646,
        1.5944786071777344
      ],
      "min": [
        -4.938180923461914,
        -0.4436662197113037,
        -1.5944786071777344
      ],
      "type": "VEC3"
    },
    {
      "bufferView": 2,
      "byteOffset": 3231576,
      "componentType": 5126,
      "count": 1712,
      "max": [
        0.00021363139967434108,
        1.0,
        1.0
      ],
      "min": [
        -1.0,
        -1.0,
        -1.0
      ],
      "type": "VEC3"
    },
    {
      "bufferView": 1,
      "byteOffset": 1070344,
      "componentType": 5126,
      "count": 1712,
      "max": [
        0.8042572736740112,
        0.5000001788139343
      ],
      "min": [
        0.4500322639942169,
        0.1957428902387619
      ],
      "type": "VEC2"
    },
    {
      "bufferView": 0,
      "byteOffset": 1259952,
      "componentType": 5125,
      "count": 8604,
      "type": "SCALAR"
    },
    {
      "bufferView": 2,
      "byteOffset": 3252120,
      "componentType": 5126,
      "count": 17191,
      "max": [
        8.975095748901367,
        2.7357699871063232,
        3.9011244773864746
      ],
      "min": [
        -5.071991443634033,
        -1.1744431257247925,
        -3.9011244773864746
      ],
      "type": "VEC3"
    },
    {
      "bufferView": 2,
      "byteOffset": 3458412,
      "componentType": 5126,
      "count": 17191,
      "max": [
        1.0,
        1.0,
        1.0
      ],
      "min": [
        -1.0,
        -1.0,
        -1.0
      ],
      "type": "VEC3"
    },
    {
      "bufferView": 1,
      "byteOffset": 1084040,
      "componentType": 5126,
      "count": 17191,
      "max": [
        9.118133544921875,
        6.000002861022949
      ],
      "min": [
        -7.757479667663574,
        -6.000000953674316
      ],
      "type": "VEC2"
    },
    {
      "bufferView": 0,
      "byteOffset": 1294368,
      "componentType": 5125,
      "count": 54732,
      "type": "SCALAR"
    },
    {
      "bufferView": 2,
      "byteOffset": 3664704,
      "componentType": 5126,
      "count": 1393,
      "max": [
        8.888140678405762,
        2.7218129634857178,
        3.869915246963501
      ],
      "min": [
        -5.051370620727539,
        -0.8296380043029785,
        -3.869915246963501
      ],
      "type": "VEC3"
    },
    {
      "bufferView": 2,
      "byteOffset": 3681420,
      "componentType": 5126,
      "count": 1393,
      "max": [
        1.0,
        0.9964073300361633,
        1.0
      ],
      "min": [
        -1.0,
        -0.9050189256668091,
        -1.0
      ],
      "type": "VEC3"
    },
    {
      "bufferView": 1,
      "byteOffset": 1221568,
      "componentType": 5126,
      "count": 1393,
      "max": [
        8.61464786529541,
        3.4694786071777344
      ],
      "min": [
        -8.830000877380371,
        -3.4265034198760986
      ],
      "type": "VEC2"
    },
    {
      "bufferView": 0,
      "byteOffset": 1513296,
      "componentType": 5125,
      "count": 4008,
      "type": "SCALAR"
    },
    {
      "bufferView": 2,
      "byteOffset": 3698136,
      "componentType": 5126,
      "count": 7292,
      "max": [
        -3.3650975227355957,
        2.629613161087036,
        1.091054916381836
      ],
      "min": [
        -3.6206278800964355,
        2.27021861076355,
        -1.091054916381836
      ],
      "type": "VEC3"
    },
    {
      "bufferView": 2,
      "byteOffset": 3785640,
      "componentType": 5126,
      "count": 7292,
      "max": [
        0.999260425567627,
        0.9681093096733093,
        0.999260425567627
      ],
      "min": [
        -0.999262809753418,
        -0.9681093096733093,
        -0.999260425567627
      ],
      "type": "VEC3"
    },
    {
      "bufferView": 1,
      "byteOffset": 1232712,
      "componentType": 5126,
      "count": 7292,
      "max": [
        0.8750001192092896,
        1.0000001192092896
      ],
      "min": [
        0.0,
        0.0
      ],
      "type": "VEC2"
    },
    {
      "bufferView": 0,
      "byteOffset": 1529328,
      "componentType": 5125,
      "count": 20352,
      "type": "SCALAR"
    },
    {
      "bufferView": 2,
      "byteOffset": 3873144,
      "componentType": 5126,
      "count": 12630,
      "max": [
        -3.2887449264526367,
        2.8892645835876465,
        1.1781227588653564
      ],
      "min": [
        -3.690946340560913,
        2.4663658142089844,
        -1.1781227588653564
      ],
      "type": "VEC3"
    },
    {
      "bufferView": 2,
      "byteOffset": 4024704,
      "componentType": 5126,
      "count": 12630,
      "max": [
        0.9995077848434448,
        1.0,
        1.0
      ],
      "min": [
        -0.9995087385177612,
        -1.0,
        -1.0
      ],
      "type": "VEC3"
    },
    {
      "bufferView": 1,
      "byteOffset": 1291048,
      "componentType": 5126,
      "count": 12630,
      "max": [
        1.0000001192092896,
        0.4723820686340332
      ],
      "min": [
        0.0,
        0.0
      ],
      "type": "VEC2"
    },
    {
      "bufferView": 0,
      "byteOffset": 1610736,
      "componentType": 5125,
      "count": 25920,
      "type": "SCALAR"
    }
  ],
  "asset": {
    "extras": {
      "author": "DanielBeltranSantiago (https://sketchfab.com/DanielBeltranSantiago)",
      "license": "CC-BY-4.0 (http://creativecommons.org/licenses/by/4.0/)",
      "source": "https://sketchfab.com/3d-models/star-destroyer-e7424b1644554fd8b741a5470c28bb5e",
      "title": "Star Destroyer"
    },
    "generator": "Sketchfab-12.68.0",
    "version": "2.0"
  },
  "bufferViews": [
    {
      "buffer": 0,
      "byteLength": 1714416,
      "name": "floatBufferViews",
      "target": 34963
    },
    {
      "buffer": 0,
      "byteLength": 1392088,
      "byteOffset": 1714416,
      "byteStride": 8,
      "name": "floatBufferViews",
      "target": 34962
    },
    {
      "buffer": 0,
      "byteLength": 4176264,
      "byteOffset": 3106504,
      "byteStride": 12,
      "name": "floatBufferViews",
      "target": 34962
    }
  ],
  "buffers": [
    {
      "byteLength": 7282768,
      "uri": "scene.bin"
    }
  ],
  "images": [
    {
      "uri": "textures/Edge_Bump_Alt_metallicRoughness.png"
    },
    {
      "uri": "textures/Top_Bump_Alt_metallicRoughness.png"
    },
    {
      "uri": "textures/Top_Bump_Alt_emissive.png"
    }
  ],
  "materials": [
    {
      "doubleSided": true,
      "name": "White_Color",
      "pbrMetallicRoughness": {
        "baseColorFactor": [
          0.8,
          0.8,
          0.8,
          1.0
        ],
        "metallicFactor": 0.0,
        "roughnessFactor": 0.4
      }
    },
    {
      "doubleSided": true,
      "name": "Top_Bump"
    },
    {
      "doubleSided": true,
      "name": "Black",
      "pbrMetallicRoughness": {
        "baseColorFactor": [
          0.010813,
          0.010813,
          0.010813,
          1.0
        ],
        "metallicFactor": 0.0,
        "roughnessFactor": 0.4
      }
    },
    {
      "doubleSided": true,
      "name": "Grey",
      "pbrMetallicRoughness": {
        "baseColorFactor": [
          0.192029,
          0.192029,
          0.192029,
          1.0
        ],
        "metallicFactor": 0.0,
        "roughnessFactor": 0.4
      }
    },
    {
      "doubleSided": true,
      "emissiveFactor": [
        0.13634899999999986,
        0.5439129999999996,
        1.0
      ],
      "name": "Blue_Emission"
    },
    {
      "doubleSided": true,
      "name": "Edge_Bump_Alt",
      "pbrMetallicRoughness": {
        "metallicRoughnessTexture": {
          "index": 0
        },
        "roughnessFactor": 0.2861491628614916
      }
    },
    {
      "doubleSided": true,
      "emissiveFactor": [
        1.0,
        1.0,
        1.0
      ],
      "emissiveTexture": {
        "index": 2
      },
      "name": "Top_Bump_Alt",
      "pbrMetallicRoughness": {
        "metallicRoughnessTexture": {
          "index": 1
        },
        "roughnessFactor": 0.2983257229832572
      }
    }
  ],
  "meshes": [
    {
      "name": "Object_0",
      "primitives": [
        {
          "attributes": {
            "NORMAL": 1,
            "POSITION": 0,
            "TEXCOORD_0": 2
          },
          "indices": 3,
          "material": 0,
          "mode": 4
        }
      ]
    },
    {
      "name": "Object_1",
      "primitives": [
        {
          "attributes": {
            "NORMAL": 5,
            "POSITION": 4,
            "TEXCOORD_0": 6
          },
          "indices": 7,
          "material": 0,
          "mode": 4
        }
      ]
    },
    {
      "name": "Object_2",
      "primitives": [
        {
          "attributes": {
            "NORMAL": 9,
            "POSITION": 8,
            "TEXCOORD_0": 10
          },
          "indices": 11,
          "material": 1,
          "mode": 4
        }
      ]
    },
    {
      "name": "Object_3",
      "primitives": [
        {
          "attributes": {
            "NORMAL": 13,
            "POSITION": 12,
            "TEXCOORD_0": 14
          },
          "indices": 15,
          "material": 2,
          "mode": 4
        }
      ]
    },
    {
      "name": "Object_4",
      "primitives": [
        {
          "attributes": {
            "NORMAL": 17,
            "POSITION": 16,
            "TEXCOORD_0": 18
          },
          "indices": 19,
          "material": 3,
          "mode": 4
        }
      ]
    },
    {
      "name": "Object_5",
      "primitives": [
        {
          "attributes": {
            "NORMAL": 21,
            "POSITION": 20,
            "TEXCOORD_0": 22
          },
          "indices": 23,
          "material": 4,
          "mode": 4
        }
      ]
    },
    {
      "name": "Object_6",
      "primitives": [
        {
          "attributes": {
            "NORMAL": 25,
            "POSITION": 24,
            "TEXCOORD_0": 26
          },
          "indices": 27,
          "material": 5,
          "mode": 4
        }
      ]
    },
    {
      "name": "Object_7",
      "primitives": [
        {
          "attributes": {
            "NORMAL": 29,
            "POSITION": 28,
            "TEXCOORD_0": 30
          },
          "indices": 31,
          "material": 6,
          "mode": 4
        }
      ]
    },
    {
      "name": "Object_8",
      "primitives": [
        {
          "attributes": {
            "NORMAL": 33,
            "POSITION": 32,
            "TEXCOORD_0": 34
          },
          "indices": 35,
          "material": 0,
          "mode": 4
        }
      ]
    },
    {
      "name": "Object_9",
      "primitives": [
        {
          "attributes": {
            "NORMAL": 37,
            "POSITION": 36,
            "TEXCOORD_0": 38
          },
          "indices": 39,
          "material": 0,
          "mode": 4
        }
      ]
    }
  ],
  "nodes": [
    {
      "children": [
        1
      ],
      "matrix": [
        1.0,
        0.0,
        0.0,
        0.0,
        0.0,
        2.220446049250313e-16,
        -1.0,
        0.0,
        0.0,
        1.0,
        2.220446049250313e-16,
        0.0,
        0.0,
        0.0,
        0.0,
        1.0
      ],
      "name": "Sketchfab_model"
    },
    {
      "children": [
        2
      ],
      "name": "root"
    },
    {
      "children": [
        3,
        12,
        14
      ],
      "matrix": [
        1.0,
        0.0,
        0.0,
        0.0,
        0.0,
        2.220446049250313e-16,
        1.0,
        0.0,
        0.0,
        -1.0,
        2.220446049250313e-16,
        0.0,
        0.0,
        0.0,
        0.0,
        1.0
      ],
      "name": "GLTF_SceneRootNode"
    },
    {
      "children": [
        4,
        5,
        6,
        7,
        8,
        9,
        10,
        11
      ],
      "name": "SD_Body_0"
    },
    {
      "mesh": 0,
      "name": "Object_4"
    },
    {
      "mesh": 1,
      "name": "Object_5"
    },
    {
      "mesh": 2,
      "name": "Object_6"
    },
    {
      "mesh": 3,
      "name": "Object_7"
    },
    {
      "mesh": 4,
      "name": "Object_8"
    },
    {
      "mesh": 5,
      "name": "Object_9"
    },
    {
      "mesh": 6,
      "name": "Object_10"
    },
    {
      "mesh": 7,
      "name": "Object_11"
    },
    {
      "children": [
        13
      ],
      "name": "Support_1"
    },
    {
      "mesh": 8,
      "name": "Object_13"
    },
    {
      "children": [
        15
      ],
      "name": "Icospheres_2"
    },
    {
      "mesh": 9,
      "name": "Object_15"
    }
  ],
  "samplers": [
    {
      "magFilter": 9729,
      "minFilter": 9987,
      "wrapS": 10497,
      "wrapT": 10497
    }
  ],
  "scene": 0,
  "scenes": [
    {
      "name": "Sketchfab_Scene",
      "nodes": [
        0
      ]
    }
  ],
  "textures": [
    {
      "sampler": 0,
      "source": 0
    },
    {
      "sampler": 0,
      "source": 1
    },
    {
      "sampler": 0,
      "source": 2
    }
  ]
}
